<svg width="14" height="14" viewBox="0 0 14 14" fill="none" xmlns="http://www.w3.org/2000/svg">
<path d="M13.4815 0H8.8321C8.53826 0 8.31359 0.224697 8.31359 0.518504C8.31359 0.81231 8.53829 1.03701 8.8321 1.03701H12.237L8.76299 4.51111C7.82966 3.75061 6.65434 3.28395 5.35806 3.28395C2.40246 3.28395 0 5.68644 0 8.64197C0 11.5975 2.40246 14 5.35803 14C8.31359 14 10.7161 11.5975 10.7161 8.64197C10.7161 7.34566 10.2494 6.17037 9.48889 5.23704L12.963 1.76297V5.1679C12.963 5.46174 13.1877 5.6864 13.4815 5.6864C13.7753 5.6864 14 5.46171 14 5.1679V0.518504C14 0.224697 13.7753 0 13.4815 0ZM5.35803 12.963C2.97284 12.963 1.03704 11.0272 1.03704 8.64201C1.03704 6.25682 2.97284 4.32102 5.35803 4.32102C7.74322 4.32102 9.67901 6.25682 9.67901 8.64201C9.67901 11.0272 7.74322 12.963 5.35803 12.963Z" fill="white"/>
</svg>
