<svg width="16" height="16" viewBox="0 0 16 16" fill="none" xmlns="http://www.w3.org/2000/svg">
<path d="M10.4653 0H4.50405C2.03124 0 0 2.16471 0 4.8V11.2471C0 13.8353 2.03124 16 4.50405 16H10.5536C12.9823 16 15.0135 13.8353 15.0135 11.2V4.8C14.9694 2.16471 12.9381 0 10.4653 0ZM13.468 11.2C13.468 12.9412 12.1874 14.3059 10.5536 14.3059H4.50405C2.87023 14.3059 1.58967 12.9412 1.58967 11.2V4.8C1.58967 3.05882 2.87023 1.69412 4.50405 1.69412H10.5536C12.1874 1.69412 13.468 3.05882 13.468 4.8V11.2Z" fill="white"/>
<path d="M7.4626 3.85889C5.29889 3.85889 3.62091 5.74124 3.62091 7.953C3.62091 10.1648 5.38721 12.0471 7.4626 12.0471C9.538 12.0471 11.3043 10.1648 11.3043 7.953C11.3043 5.74124 9.62632 3.85889 7.4626 3.85889ZM7.4626 10.5412C6.18204 10.5412 5.12226 9.41183 5.12226 8.04712C5.12226 6.68242 6.18204 5.553 7.4626 5.553C8.74317 5.553 9.80295 6.68242 9.80295 8.04712C9.80295 9.36477 8.78733 10.5412 7.4626 10.5412Z" fill="white"/>
<path d="M11.3926 4.84708C11.9047 4.84708 12.3199 4.40463 12.3199 3.85884C12.3199 3.31305 11.9047 2.87061 11.3926 2.87061C10.8805 2.87061 10.4653 3.31305 10.4653 3.85884C10.4653 4.40463 10.8805 4.84708 11.3926 4.84708Z" fill="white"/>
</svg>
