<svg width="22" height="14" viewBox="0 0 22 14" fill="none" xmlns="http://www.w3.org/2000/svg">
<path d="M19.4579 5.40028C17.3435 8.48381 17.0947 8.14864 18.836 9.95854C20.5151 11.6344 20.8882 12.5058 20.9504 12.5728C20.9504 12.5728 21.6344 13.9135 20.1419 13.9135L17.3435 13.9805C16.7216 14.1146 15.9132 13.5113 15.9132 13.5113C14.856 12.7069 13.861 10.6959 13.1147 10.964C13.1147 10.964 12.3063 11.2322 12.3685 13.0421C12.3685 13.4443 12.1819 13.6454 12.1819 13.6454C12.1819 13.6454 11.9953 13.8465 11.6222 13.9135H10.3784C7.58 14.1146 5.15468 11.3662 5.15468 11.3662C5.15468 11.3662 2.41841 8.34974 0.055278 2.38379C-0.0690975 1.98159 0.055278 1.78049 0.055278 1.78049C0.055278 1.78049 0.241841 1.57939 0.677156 1.57939H3.66217C3.97311 1.64642 4.15967 1.78049 4.15967 1.78049C4.15967 1.78049 4.34623 1.91456 4.47061 2.11565C4.96811 3.45632 5.58999 4.66292 5.58999 4.66292C6.70937 7.07611 7.45562 7.54534 7.89094 7.27721C7.89094 7.27721 8.45063 6.94204 8.32625 3.92555C8.26406 2.85302 8.01531 2.38379 8.01531 2.38379C7.76656 2.04862 7.26906 1.91456 7.0825 1.84752C6.89593 1.84752 7.20687 1.37829 7.58 1.17719C8.13969 0.909058 9.0725 0.909058 10.1919 0.909058C11.0625 0.909058 11.3113 0.976091 11.6844 1.04312C12.7416 1.31126 12.3685 2.38379 12.3685 4.86402C12.3685 5.66841 12.2441 6.80798 12.7416 7.14314C12.9903 7.27721 13.55 7.14314 14.9803 4.59588C14.9803 4.59588 15.6644 3.38929 16.1619 1.91456C16.2241 1.64642 16.4107 1.57939 16.4107 1.57939C16.4107 1.57939 16.5972 1.44532 16.846 1.51236H20.0175C20.9504 1.44532 21.1369 1.91456 21.1369 1.91456C21.2613 2.38379 20.7638 3.52335 19.4579 5.40028Z" fill="white"/>
</svg>
